<svg width="116" height="18" viewBox="0 0 116 18" fill="none" xmlns="http://www.w3.org/2000/svg">
<path d="M7.80664 10.8828H5.88574C5.86751 11.1836 5.81738 11.4411 5.73535 11.6553C5.65332 11.8695 5.54167 12.0449 5.40039 12.1816C5.25911 12.3184 5.08822 12.4186 4.8877 12.4824C4.68717 12.5462 4.46159 12.5781 4.21094 12.5781C4.02409 12.5781 3.85319 12.5576 3.69824 12.5166C3.54785 12.471 3.41113 12.4027 3.28809 12.3115C3.17415 12.2295 3.07161 12.127 2.98047 12.0039C2.89388 11.8809 2.81868 11.7396 2.75488 11.5801C2.66374 11.3477 2.59538 11.0765 2.5498 10.7666C2.50879 10.4521 2.48828 10.0967 2.48828 9.7002V8.34668C2.48828 8.05501 2.50195 7.78385 2.5293 7.5332C2.55664 7.27799 2.59993 7.04557 2.65918 6.83594C2.73665 6.56706 2.83919 6.33236 2.9668 6.13184C3.09896 5.92676 3.25846 5.76953 3.44531 5.66016C3.55469 5.59635 3.67318 5.5485 3.80078 5.5166C3.93294 5.4847 4.07422 5.46875 4.22461 5.46875C4.50716 5.46875 4.7487 5.50749 4.94922 5.58496C5.1543 5.65788 5.3252 5.76725 5.46191 5.91309C5.59408 6.06348 5.69434 6.25033 5.7627 6.47363C5.83561 6.69694 5.88118 6.95671 5.89941 7.25293H7.81348C7.7679 6.7334 7.65853 6.26628 7.48535 5.85156C7.31217 5.43685 7.0752 5.08594 6.77441 4.79883C6.47363 4.51172 6.10905 4.29069 5.68066 4.13574C5.25684 3.98079 4.77148 3.90332 4.22461 3.90332C3.85547 3.90332 3.50911 3.95117 3.18555 4.04688C2.86654 4.13802 2.57259 4.27018 2.30371 4.44336C2.00293 4.64844 1.73405 4.89909 1.49707 5.19531C1.26009 5.49154 1.06868 5.82878 0.922852 6.20703C0.795247 6.51693 0.699544 6.85417 0.635742 7.21875C0.57194 7.57878 0.540039 7.95931 0.540039 8.36035V9.7002C0.540039 10.1286 0.574219 10.5342 0.642578 10.917C0.715495 11.2998 0.818034 11.6507 0.950195 11.9697C1.08691 12.2887 1.25326 12.5804 1.44922 12.8447C1.64974 13.109 1.8776 13.3346 2.13281 13.5215C2.41081 13.722 2.72298 13.877 3.06934 13.9863C3.42025 14.0911 3.80078 14.1436 4.21094 14.1436C4.73047 14.1436 5.20443 14.0684 5.63281 13.918C6.0612 13.763 6.43034 13.5443 6.74023 13.2617C7.05013 12.9792 7.29622 12.6374 7.47852 12.2363C7.66536 11.8353 7.77474 11.3841 7.80664 10.8828ZM11.3613 12.4482V4.04688H9.43359V14H16.0234V12.4482H11.3613ZM24.6572 9.75488V8.30566C24.6572 7.85449 24.6139 7.42839 24.5273 7.02734C24.4453 6.6263 24.3245 6.25716 24.165 5.91992C24.0192 5.6237 23.8438 5.35254 23.6387 5.10645C23.4382 4.86035 23.2035 4.65072 22.9346 4.47754C22.6657 4.29525 22.3626 4.15625 22.0254 4.06055C21.6927 3.96029 21.335 3.91016 20.9521 3.91016C20.5739 3.91016 20.223 3.95801 19.8994 4.05371C19.5758 4.14941 19.2842 4.28613 19.0244 4.46387C18.7601 4.64616 18.5254 4.86491 18.3203 5.12012C18.1198 5.37533 17.9489 5.66016 17.8076 5.97461C17.6618 6.30729 17.5501 6.6696 17.4727 7.06152C17.3997 7.45345 17.3633 7.86816 17.3633 8.30566V9.75488C17.3633 10.165 17.3952 10.5547 17.459 10.9238C17.5273 11.293 17.6253 11.6348 17.7529 11.9492C17.8942 12.291 18.0697 12.5986 18.2793 12.8721C18.4889 13.141 18.7259 13.3711 18.9902 13.5625C19.2591 13.7448 19.5576 13.8861 19.8857 13.9863C20.2139 14.0866 20.5716 14.1367 20.959 14.1367C21.3236 14.1367 21.6631 14.0911 21.9775 14C22.2965 13.9134 22.5882 13.7904 22.8525 13.6309C23.1442 13.4486 23.404 13.2207 23.6318 12.9473C23.8597 12.6738 24.0511 12.373 24.2061 12.0449C24.3519 11.7168 24.4635 11.3613 24.541 10.9785C24.6185 10.5911 24.6572 10.1833 24.6572 9.75488ZM22.709 8.29199V9.75488C22.709 10.001 22.6953 10.238 22.668 10.4658C22.6452 10.6937 22.6087 10.9033 22.5586 11.0947C22.4948 11.3408 22.4082 11.5618 22.2988 11.7578C22.194 11.9492 22.0641 12.1087 21.9092 12.2363C21.7861 12.3411 21.6449 12.4209 21.4854 12.4756C21.3258 12.5303 21.1504 12.5576 20.959 12.5576C20.7585 12.5576 20.5785 12.528 20.4189 12.4688C20.264 12.4095 20.125 12.3252 20.002 12.2158C19.8698 12.0928 19.7536 11.9333 19.6533 11.7373C19.5576 11.5368 19.4847 11.3158 19.4346 11.0742C19.389 10.8828 19.3571 10.6755 19.3389 10.4521C19.3206 10.2288 19.3115 9.99642 19.3115 9.75488V8.29199C19.3115 8.03678 19.3206 7.79297 19.3389 7.56055C19.3617 7.32812 19.3958 7.11393 19.4414 6.91797C19.5007 6.66276 19.5827 6.43945 19.6875 6.24805C19.7969 6.05664 19.929 5.89714 20.084 5.76953C20.1979 5.68294 20.3255 5.61686 20.4668 5.57129C20.6126 5.52572 20.7744 5.50293 20.9521 5.50293C21.139 5.50293 21.3076 5.52799 21.458 5.57812C21.613 5.62826 21.752 5.69889 21.875 5.79004C22.0299 5.91309 22.1644 6.07259 22.2783 6.26855C22.3923 6.45996 22.4834 6.67871 22.5518 6.9248C22.6064 7.12077 22.6452 7.33496 22.668 7.56738C22.6953 7.79525 22.709 8.03678 22.709 8.29199ZM32.751 4.04688H30.8438L30.8369 10.6436C30.8324 10.9671 30.7982 11.252 30.7344 11.498C30.6706 11.7441 30.5749 11.9492 30.4473 12.1133C30.3288 12.2728 30.1784 12.3936 29.9961 12.4756C29.8184 12.5531 29.6133 12.5918 29.3809 12.5918C29.1667 12.5918 28.9775 12.5553 28.8135 12.4824C28.6494 12.4049 28.5104 12.291 28.3965 12.1406C28.2734 11.9766 28.18 11.7692 28.1162 11.5186C28.057 11.2679 28.0251 10.9762 28.0205 10.6436L28.0137 4.04688H26.0928L26.0859 10.6436C26.0859 11.1995 26.1634 11.6963 26.3184 12.1338C26.4779 12.5667 26.7012 12.9313 26.9883 13.2275C27.2754 13.5238 27.6195 13.7493 28.0205 13.9043C28.4261 14.0592 28.8796 14.1367 29.3809 14.1367C29.9141 14.1367 30.388 14.0592 30.8027 13.9043C31.222 13.7493 31.5775 13.5215 31.8691 13.2207C32.1562 12.9245 32.375 12.5599 32.5254 12.127C32.6803 11.694 32.7578 11.1995 32.7578 10.6436L32.751 4.04688ZM34.4873 14H37.1602C37.6022 14 38.0169 13.9453 38.4043 13.8359C38.7962 13.7266 39.154 13.5693 39.4775 13.3643C39.7555 13.1911 40.0107 12.9769 40.2432 12.7217C40.4756 12.4619 40.6784 12.1794 40.8516 11.874C41.0339 11.5322 41.1751 11.1562 41.2754 10.7461C41.3757 10.3359 41.4258 9.90072 41.4258 9.44043V8.62012C41.4258 8.1416 41.3711 7.69043 41.2617 7.2666C41.1569 6.84277 41.0065 6.4554 40.8105 6.10449C40.6419 5.81738 40.4437 5.55306 40.2158 5.31152C39.9925 5.06543 39.7373 4.85807 39.4502 4.68945C39.1221 4.48438 38.7575 4.32715 38.3564 4.21777C37.9554 4.10384 37.5247 4.04688 37.0645 4.04688H34.4873V14ZM36.4219 5.60547H37.0645C37.2969 5.60547 37.5111 5.63281 37.707 5.6875C37.9076 5.73763 38.0898 5.81055 38.2539 5.90625C38.4681 6.03385 38.6549 6.19792 38.8145 6.39844C38.9785 6.59896 39.1107 6.82682 39.2109 7.08203C39.293 7.29622 39.3545 7.5332 39.3955 7.79297C39.4411 8.04818 39.4639 8.31934 39.4639 8.60645V9.44043C39.4639 9.74577 39.4411 10.0306 39.3955 10.2949C39.3545 10.5547 39.293 10.7917 39.2109 11.0059C39.1107 11.252 38.9899 11.4684 38.8486 11.6553C38.7119 11.8376 38.557 11.988 38.3838 12.1064C38.2152 12.2204 38.0283 12.307 37.8232 12.3662C37.6182 12.4255 37.3971 12.4551 37.1602 12.4551H36.4219V5.60547ZM53.3887 10.3496H54.8721C55.4144 10.3496 55.9043 10.2721 56.3418 10.1172C56.7793 9.96224 57.153 9.74577 57.4629 9.46777C57.7682 9.19434 58.0029 8.86849 58.167 8.49023C58.3356 8.11198 58.4199 7.69954 58.4199 7.25293C58.4199 6.77441 58.3356 6.33919 58.167 5.94727C58.0029 5.55534 57.7682 5.2181 57.4629 4.93555C57.153 4.65755 56.7793 4.44108 56.3418 4.28613C55.9043 4.12663 55.4144 4.04688 54.8721 4.04688H51.4678V14H53.3887V10.3496ZM53.3887 8.79102V5.60547H54.8721C55.1455 5.60547 55.3825 5.64876 55.583 5.73535C55.7835 5.82194 55.9521 5.94043 56.0889 6.09082C56.221 6.24121 56.319 6.41667 56.3828 6.61719C56.4512 6.81771 56.4854 7.03418 56.4854 7.2666C56.4854 7.46712 56.4512 7.66081 56.3828 7.84766C56.319 8.02995 56.221 8.19173 56.0889 8.33301C55.9521 8.47428 55.7835 8.58594 55.583 8.66797C55.3825 8.75 55.1455 8.79102 54.8721 8.79102H53.3887ZM63.1299 10.2812L65.0029 14H67.0605V13.9111L64.9209 9.80273C65.1943 9.67969 65.4404 9.53385 65.6592 9.36523C65.8825 9.19661 66.0739 8.99837 66.2334 8.77051C66.3883 8.5472 66.5068 8.29427 66.5889 8.01172C66.6755 7.72461 66.7188 7.40332 66.7188 7.04785C66.7188 6.55566 66.6322 6.12272 66.459 5.74902C66.2904 5.37533 66.0488 5.06315 65.7344 4.8125C65.4154 4.56185 65.0326 4.37272 64.5859 4.24512C64.1393 4.11296 63.6403 4.04688 63.0889 4.04688H59.7529V14H61.6738V10.2812H63.1299ZM61.6738 8.72266V5.60547H63.0889C63.3532 5.60547 63.5879 5.63737 63.793 5.70117C63.998 5.76497 64.1712 5.85612 64.3125 5.97461C64.472 6.10677 64.5905 6.27539 64.668 6.48047C64.75 6.68099 64.791 6.91341 64.791 7.17773C64.791 7.39648 64.7591 7.59473 64.6953 7.77246C64.6361 7.9502 64.5472 8.10286 64.4287 8.23047C64.2874 8.38997 64.1029 8.51302 63.875 8.59961C63.6517 8.68164 63.3919 8.72266 63.0957 8.72266H61.6738ZM75.1064 9.75488V8.30566C75.1064 7.85449 75.0632 7.42839 74.9766 7.02734C74.8945 6.6263 74.7738 6.25716 74.6143 5.91992C74.4684 5.6237 74.293 5.35254 74.0879 5.10645C73.8874 4.86035 73.6527 4.65072 73.3838 4.47754C73.1149 4.29525 72.8118 4.15625 72.4746 4.06055C72.1419 3.96029 71.7842 3.91016 71.4014 3.91016C71.0231 3.91016 70.6722 3.95801 70.3486 4.05371C70.0251 4.14941 69.7334 4.28613 69.4736 4.46387C69.2093 4.64616 68.9746 4.86491 68.7695 5.12012C68.569 5.37533 68.3981 5.66016 68.2568 5.97461C68.111 6.30729 67.9993 6.6696 67.9219 7.06152C67.849 7.45345 67.8125 7.86816 67.8125 8.30566V9.75488C67.8125 10.165 67.8444 10.5547 67.9082 10.9238C67.9766 11.293 68.0745 11.6348 68.2021 11.9492C68.3434 12.291 68.5189 12.5986 68.7285 12.8721C68.9382 13.141 69.1751 13.3711 69.4395 13.5625C69.7083 13.7448 70.0068 13.8861 70.335 13.9863C70.6631 14.0866 71.0208 14.1367 71.4082 14.1367C71.7728 14.1367 72.1123 14.0911 72.4268 14C72.7458 13.9134 73.0374 13.7904 73.3018 13.6309C73.5934 13.4486 73.8532 13.2207 74.0811 12.9473C74.3089 12.6738 74.5003 12.373 74.6553 12.0449C74.8011 11.7168 74.9128 11.3613 74.9902 10.9785C75.0677 10.5911 75.1064 10.1833 75.1064 9.75488ZM73.1582 8.29199V9.75488C73.1582 10.001 73.1445 10.238 73.1172 10.4658C73.0944 10.6937 73.0579 10.9033 73.0078 11.0947C72.944 11.3408 72.8574 11.5618 72.748 11.7578C72.6432 11.9492 72.5133 12.1087 72.3584 12.2363C72.2354 12.3411 72.0941 12.4209 71.9346 12.4756C71.7751 12.5303 71.5996 12.5576 71.4082 12.5576C71.2077 12.5576 71.0277 12.528 70.8682 12.4688C70.7132 12.4095 70.5742 12.3252 70.4512 12.2158C70.319 12.0928 70.2028 11.9333 70.1025 11.7373C70.0068 11.5368 69.9339 11.3158 69.8838 11.0742C69.8382 10.8828 69.8063 10.6755 69.7881 10.4521C69.7699 10.2288 69.7607 9.99642 69.7607 9.75488V8.29199C69.7607 8.03678 69.7699 7.79297 69.7881 7.56055C69.8109 7.32812 69.8451 7.11393 69.8906 6.91797C69.9499 6.66276 70.0319 6.43945 70.1367 6.24805C70.2461 6.05664 70.3783 5.89714 70.5332 5.76953C70.6471 5.68294 70.7747 5.61686 70.916 5.57129C71.0618 5.52572 71.2236 5.50293 71.4014 5.50293C71.5882 5.50293 71.7568 5.52799 71.9072 5.57812C72.0622 5.62826 72.2012 5.69889 72.3242 5.79004C72.4792 5.91309 72.6136 6.07259 72.7275 6.26855C72.8415 6.45996 72.9326 6.67871 73.001 6.9248C73.0557 7.12077 73.0944 7.33496 73.1172 7.56738C73.1445 7.79525 73.1582 8.03678 73.1582 8.29199Z" fill="black"/>
<path d="M86.7207 13.2383C86.3809 13.2383 86.0957 13.1719 85.8652 13.0391C85.6387 12.9023 85.457 12.7246 85.3203 12.5059C85.1797 12.291 85.0781 12.0488 85.0156 11.7793C84.957 11.5059 84.9277 11.2305 84.9277 10.9531V10.707C84.9277 10.4336 84.957 10.1621 85.0156 9.89258C85.0781 9.62305 85.1797 9.37891 85.3203 9.16016C85.4609 8.94531 85.6445 8.77148 85.8711 8.63867C86.1016 8.50195 86.3848 8.43359 86.7207 8.43359C86.9395 8.43359 87.1426 8.4707 87.3301 8.54492C87.5215 8.61914 87.6855 8.7207 87.8223 8.84961C87.959 8.97852 88.0664 9.12891 88.1445 9.30078C88.2266 9.46875 88.2695 9.64844 88.2734 9.83984H89.2988C89.2988 9.51953 89.2344 9.21875 89.1055 8.9375C88.9766 8.65625 88.7988 8.41211 88.5723 8.20508C88.3418 8.00195 88.0684 7.8418 87.752 7.72461C87.4395 7.60352 87.0957 7.54297 86.7207 7.54297C86.2402 7.54297 85.8203 7.62891 85.4609 7.80078C85.1016 7.97266 84.8027 8.20312 84.5645 8.49219C84.3223 8.78516 84.1406 9.12305 84.0195 9.50586C83.8984 9.88867 83.8379 10.2891 83.8379 10.707V10.9531C83.8379 11.375 83.8984 11.7773 84.0195 12.1602C84.1406 12.5391 84.3223 12.873 84.5645 13.1621C84.8027 13.4551 85.1016 13.6875 85.4609 13.8594C85.8203 14.0312 86.2402 14.1172 86.7207 14.1172C87.0566 14.1172 87.3789 14.0605 87.6875 13.9473C87.9961 13.8301 88.2695 13.6738 88.5078 13.4785C88.7461 13.2871 88.9355 13.0645 89.0762 12.8105C89.2207 12.5527 89.2949 12.2832 89.2988 12.002H88.2734C88.2695 12.1777 88.2227 12.3418 88.1328 12.4941C88.0469 12.6426 87.9316 12.7715 87.7871 12.8809C87.6426 12.9941 87.4766 13.082 87.2891 13.1445C87.1055 13.207 86.916 13.2383 86.7207 13.2383ZM91.3965 5V5.94336H93.5527V13.0625H91.3965V14H96.7051V13.0625H94.6367V5H91.3965ZM102.611 14H103.596V7.66016H102.506V12.207C102.447 12.3438 102.373 12.4707 102.283 12.5879C102.197 12.7012 102.096 12.7988 101.979 12.8809C101.838 12.9824 101.672 13.0625 101.48 13.1211C101.289 13.1758 101.072 13.2031 100.83 13.2031C100.623 13.2031 100.439 13.1758 100.279 13.1211C100.123 13.0664 99.9902 12.9707 99.8809 12.834C99.7715 12.7012 99.6895 12.5215 99.6348 12.2949C99.5801 12.0684 99.5527 11.7832 99.5527 11.4395V7.66016H98.4688V11.4277C98.4688 11.9004 98.5195 12.3066 98.6211 12.6465C98.7266 12.9824 98.875 13.2598 99.0664 13.4785C99.2578 13.6973 99.4883 13.8594 99.7578 13.9648C100.027 14.0664 100.328 14.1172 100.66 14.1172C101.074 14.1172 101.439 14.0312 101.756 13.8594C102.072 13.6836 102.336 13.4395 102.547 13.127L102.611 14ZM111.014 10.9004V10.7773C111.014 10.4453 110.986 10.1309 110.932 9.83398C110.877 9.5332 110.797 9.25977 110.691 9.01367C110.59 8.79492 110.473 8.59766 110.34 8.42188C110.207 8.24219 110.057 8.08984 109.889 7.96484C109.701 7.83203 109.492 7.72852 109.262 7.6543C109.031 7.58008 108.779 7.54297 108.506 7.54297C108.287 7.54297 108.084 7.56445 107.896 7.60742C107.709 7.65039 107.537 7.71289 107.381 7.79492C107.256 7.86133 107.139 7.94141 107.029 8.03516C106.92 8.125 106.82 8.22656 106.73 8.33984V5H105.646V14H106.643L106.695 13.2793C106.766 13.3691 106.84 13.4512 106.918 13.5254C106.996 13.5996 107.078 13.668 107.164 13.7305C107.344 13.8555 107.545 13.9512 107.768 14.0176C107.994 14.084 108.244 14.1172 108.518 14.1172C108.756 14.1172 108.977 14.0879 109.18 14.0293C109.387 13.9707 109.576 13.8887 109.748 13.7832C109.986 13.6309 110.189 13.4395 110.357 13.209C110.529 12.9746 110.668 12.7109 110.773 12.418C110.852 12.1953 110.91 11.957 110.949 11.7031C110.992 11.4453 111.014 11.1777 111.014 10.9004ZM109.93 10.7773V10.9004C109.93 11.0879 109.918 11.2715 109.895 11.4512C109.871 11.6309 109.834 11.7988 109.783 11.9551C109.721 12.1621 109.637 12.3496 109.531 12.5176C109.426 12.6855 109.295 12.8242 109.139 12.9336C109.021 13.0195 108.889 13.0859 108.74 13.1328C108.592 13.1758 108.428 13.1973 108.248 13.1973C108.061 13.1973 107.889 13.1738 107.732 13.127C107.576 13.0762 107.436 13.0059 107.311 12.916C107.186 12.8262 107.074 12.7227 106.977 12.6055C106.883 12.4844 106.801 12.3535 106.73 12.2129V9.44141C106.797 9.30078 106.877 9.17188 106.971 9.05469C107.068 8.93359 107.18 8.82812 107.305 8.73828C107.426 8.65234 107.564 8.58594 107.721 8.53906C107.877 8.48828 108.049 8.46289 108.236 8.46289C108.408 8.46289 108.564 8.48242 108.705 8.52148C108.846 8.56055 108.973 8.61523 109.086 8.68555C109.25 8.7832 109.389 8.91797 109.502 9.08984C109.615 9.26172 109.707 9.45117 109.777 9.6582C109.828 9.82617 109.865 10.0059 109.889 10.1973C109.916 10.3848 109.93 10.5781 109.93 10.7773Z" fill="black"/>
</svg>
